<svg id="Layer_1" data-name="Layer 1" xmlns="http://www.w3.org/2000/svg" viewBox="0 0 120 120"><defs><style>.cls-1{fill:#de232e;}.cls-2{fill:none;stroke:#231f20;stroke-miterlimit:10;stroke-width:3px;}.cls-3{font-size:20.22px;font-family:Copperplate-Bold, Copperplate;font-weight:700;letter-spacing:0em;}.cls-11,.cls-3{fill:#231f20;}.cls-4{letter-spacing:-0.01em;}.cls-5{letter-spacing:0em;}.cls-6{letter-spacing:0.02em;}.cls-7{letter-spacing:0.01em;}.cls-8{letter-spacing:0em;}.cls-9{letter-spacing:0.02em;}.cls-10{letter-spacing:0.02em;}</style></defs><title>Artboard 3 copy</title><rect class="cls-1" width="120" height="120"/><polyline class="cls-2" points="21.79 38.4 60 16.43 98.22 38.4"/><text class="cls-3" transform="translate(13.29 105.58)">b<tspan class="cls-4" x="12.29" y="0">u</tspan><tspan class="cls-5" x="25.61" y="0">i</tspan><tspan class="cls-6" x="32.39" y="0">l</tspan><tspan class="cls-7" x="43.94" y="0">d</tspan><tspan class="cls-8" x="56.49" y="0">e</tspan><tspan class="cls-9" x="68.9" y="0">r</tspan><tspan class="cls-10" x="81.68" y="0">s</tspan></text><path class="cls-11" d="M60,82.8,45.11,52.1l-.16.17V83.05a1.3,1.3,0,0,0,.37,1,3.76,3.76,0,0,0,2,.54v1H30.56v-1a3.76,3.76,0,0,0,2-.54,1.3,1.3,0,0,0,.37-1v-39a1.32,1.32,0,0,0-.37-1,3.76,3.76,0,0,0-2-.54v-1H53.23v1c-1.34.06-2,.56-2,1.51A7.91,7.91,0,0,0,52,46.17c.5,1.11,1.16,2.51,2,4.18s1.71,3.51,2.71,5.52,2,4.07,2.93,6.19h.84c.95-2.12,1.92-4.19,2.93-6.19s1.9-3.85,2.71-5.52,1.47-3.07,2-4.18a7.91,7.91,0,0,0,.75-2.09c0-.95-.67-1.45-2-1.51v-1H89.44v1a3.76,3.76,0,0,0-2,.54,1.32,1.32,0,0,0-.37,1v39a1.3,1.3,0,0,0,.37,1,3.76,3.76,0,0,0,2,.54v1H72.71v-1a3.76,3.76,0,0,0,2-.54,1.3,1.3,0,0,0,.37-1V52.27l-.16-.17Z"/></svg>